<svg width="20" height="20" viewBox="0 0 20 20" fill="none" xmlns="http://www.w3.org/2000/svg">
<path d="M18.3334 9.99996C18.3334 5.39759 14.6024 1.66663 10 1.66663C5.39765 1.66663 1.66669 5.39759 1.66669 9.99996C1.66669 14.6023 5.39765 18.3333 10 18.3333C14.6024 18.3333 18.3334 14.6023 18.3334 9.99996Z" stroke="#23AEFF" stroke-width="1.5"/>
<path d="M10.3345 6.91489L12.7677 6.1038C13.5063 5.85762 13.8755 5.73453 14.0704 5.92945C14.2654 6.12438 14.1423 6.49364 13.8961 7.23218L13.085 9.66544C12.6655 10.9239 12.4558 11.5532 12.0045 12.0044C11.5532 12.4557 10.924 12.6655 9.6655 13.085L7.23224 13.896C6.4937 14.1422 6.12444 14.2653 5.92951 14.0704C5.73459 13.8755 5.85768 13.5062 6.10386 12.7677L6.91495 10.3344C7.33444 9.0759 7.54419 8.44665 7.99545 7.99539C8.44671 7.54413 9.07596 7.33438 10.3345 6.91489Z" stroke="#23AEFF" stroke-width="1.5" stroke-linecap="round" stroke-linejoin="round"/>
<path d="M10 10L9.99471 10.0053" stroke="#23AEFF" stroke-width="2" stroke-linecap="round" stroke-linejoin="round"/>
</svg>
