<svg width="50" height="50" viewBox="0 0 50 50" fill="none" xmlns="http://www.w3.org/2000/svg">
<rect width="50" height="50" rx="25" fill="#FFF2E5"/>
<path d="M14.6665 25C14.6665 30.5228 19.1795 35 24.7466 35C26.849 35 28.8011 34.3614 30.4166 33.2691C35.4964 29.3845 34.9847 23.6378 34.0939 21.25C32.5986 17.5852 28.9769 15 24.7466 15C19.1795 15 14.6665 19.4772 14.6665 25Z" fill="#D4D7E0"/>
<path d="M14.6665 23C15.4462 19.1841 18.3357 16.1293 22.0727 15.0898C22.3864 15.0025 22.5432 14.9589 22.6277 15.0524C22.7122 15.1458 22.6499 15.3004 22.5255 15.6096L21.6665 17.5M26.6665 15C30.4824 15.7797 33.5372 18.6692 34.5767 22.4062C34.664 22.7199 34.7076 22.8767 34.6141 22.9612C34.5207 23.0457 34.3661 22.9834 34.0569 22.859L32.1665 22M34.6665 27C33.8868 30.8159 30.9973 33.8707 27.2603 34.9102C26.9466 34.9975 26.7898 35.0411 26.7053 34.9476C26.6208 34.8542 26.6831 34.6996 26.8075 34.3904L27.6665 32.5M22.6665 35C18.8506 34.2203 15.7958 31.3308 14.7563 27.5938C14.669 27.2801 14.6254 27.1233 14.7189 27.0388C14.8123 26.9543 14.9669 27.0166 15.2761 27.141L17.1665 28" stroke="#141B34" stroke-width="1.5" stroke-linecap="round"/>
<path d="M28.1583 21.3583C28.1742 20.9595 28.1821 20.7601 28.0443 20.6202C27.9064 20.4804 27.7145 20.4912 27.3305 20.5129C24.1493 20.6927 19.9699 22.3095 22.0417 27.1035C26.7043 29.2363 28.0263 24.6742 28.1583 21.3583Z" fill="white"/>
<path d="M24.6664 24.0989C23.354 24.9991 21.7652 26.7795 21.1665 29.5M22.0415 27.1035C19.9696 22.3095 24.1491 20.6927 27.3303 20.5129C27.7142 20.4912 27.9062 20.4804 28.044 20.6202C28.1819 20.7601 28.1739 20.9595 28.1581 21.3583C28.026 24.6742 26.7041 29.2363 22.0415 27.1035Z" stroke="#141B34" stroke-width="1.5" stroke-linecap="round" stroke-linejoin="round"/>
</svg>
