<svg width="50" height="50" viewBox="0 0 50 50" fill="none" xmlns="http://www.w3.org/2000/svg">
<rect width="50" height="50" rx="25" fill="#FFF2E5"/>
<path d="M18.5593 24.3294L25.5575 15.3465C26.1048 14.644 27.1307 15.0812 27.1307 16.0171V22.9699C27.1307 23.5305 27.533 23.985 28.0293 23.985H31.4331C32.2064 23.985 32.6186 25.0149 32.1077 25.6706L25.1095 34.6535C24.5622 35.356 23.5363 34.9188 23.5363 33.9829V27.0301C23.5363 26.4695 23.134 26.015 22.6377 26.015H19.2338C18.4606 26.015 18.0484 24.9851 18.5593 24.3294Z" fill="#D4D7E0"/>
<path d="M18.5593 24.3294L25.5575 15.3465C26.1048 14.644 27.1307 15.0812 27.1307 16.0171V22.9699C27.1307 23.5305 27.533 23.985 28.0293 23.985H31.4331C32.2064 23.985 32.6186 25.0149 32.1077 25.6706L25.1095 34.6535C24.5622 35.356 23.5363 34.9188 23.5363 33.9829V27.0301C23.5363 26.4695 23.134 26.015 22.6377 26.015H19.2338C18.4606 26.015 18.0484 24.9851 18.5593 24.3294Z" stroke="#141B34" stroke-width="1.5" stroke-linecap="round" stroke-linejoin="round"/>
</svg>
