<svg width="50" height="50" viewBox="0 0 50 50" fill="none" xmlns="http://www.w3.org/2000/svg">
<rect width="50" height="50" rx="25" fill="#FFF2E5"/>
<path d="M33 34H22C18.7002 34 17.0503 34 16.0251 32.9749C15 31.9497 15 30.2998 15 27V16" stroke="#141B34" stroke-width="1.5" stroke-linecap="round"/>
<path d="M29.0086 20C29.0086 19.5858 29.3444 19.25 29.7586 19.25C30.1728 19.25 30.5086 19.5858 30.5086 20L29.0086 20ZM19 30.75C18.5858 30.75 18.25 30.4142 18.25 30C18.25 29.5858 18.5858 29.25 19 29.25L19 30.75ZM28.0651 21.5122C27.7822 21.8148 27.3076 21.8307 27.005 21.5478C26.7025 21.2649 26.6865 20.7903 26.9694 20.4878L28.0651 21.5122ZM28.4907 19.9589L27.9429 19.4466L28.4907 19.9589ZM31.0265 19.9589L31.5744 19.4466L31.0265 19.9589ZM32.5478 20.4878C32.8307 20.7903 32.8148 21.2649 32.5122 21.5478C32.2097 21.8307 31.7351 21.8148 31.4522 21.5122L32.5478 20.4878ZM29.7586 19L29.7586 18.25L29.7586 19ZM29.7586 20L30.5086 20C30.5086 23.5107 29.2248 26.2267 27.0961 28.0543C24.9829 29.8686 22.1058 30.75 19 30.75L19 30L19 29.25C21.836 29.25 24.3383 28.4451 26.1189 26.9162C27.8841 25.4007 29.0086 23.1168 29.0086 20L29.7586 20ZM27.5172 21L26.9694 20.4878L27.9429 19.4466L28.4907 19.9589L29.0385 20.4711L28.0651 21.5122L27.5172 21ZM31.0265 19.9589L31.5744 19.4466L32.5478 20.4878L32 21L31.4522 21.5122L30.4787 20.4711L31.0265 19.9589ZM28.4907 19.9589L27.9429 19.4466C28.2269 19.1428 28.491 18.858 28.7354 18.6586C28.9947 18.447 29.3271 18.25 29.7586 18.25L29.7586 19L29.7586 19.75C29.8188 19.75 29.8161 19.7128 29.6837 19.8208C29.5364 19.941 29.3522 20.1357 29.0385 20.4711L28.4907 19.9589ZM31.0265 19.9589L30.4787 20.4711C30.1651 20.1357 29.9808 19.941 29.8335 19.8208C29.7011 19.7128 29.6984 19.75 29.7586 19.75L29.7586 19L29.7586 18.25C30.1902 18.25 30.5226 18.447 30.7819 18.6586C31.0263 18.858 31.2903 19.1428 31.5744 19.4466L31.0265 19.9589Z" fill="#141B34"/>
</svg>
