<svg width="50" height="50" viewBox="0 0 50 50" fill="none" xmlns="http://www.w3.org/2000/svg">
<rect width="50" height="50" rx="25" fill="#FFF2E5"/>
<path d="M14.6851 26.2135C14.3321 23.9162 14.1555 22.7676 14.5898 21.7494C15.0241 20.7311 15.9877 20.0344 17.9148 18.6411L19.3547 17.6C21.752 15.8667 22.9506 15 24.3337 15C25.7167 15 26.9154 15.8667 29.3127 17.6L30.7525 18.6411C32.6797 20.0344 33.6432 20.7311 34.0775 21.7494C34.5118 22.7676 34.3353 23.9162 33.9823 26.2135L33.6813 28.1724C33.1808 31.4289 32.9306 33.0572 31.7627 34.0286C30.5948 35 28.8873 35 25.4725 35H23.1949C19.78 35 18.0726 35 16.9047 34.0286C15.7368 33.0572 15.4865 31.4289 14.9861 28.1724L14.6851 26.2135Z" fill="#D4D7E0"/>
<path d="M21.0824 31.4911L21.333 35H27.333L27.5836 31.4911C27.7184 29.6046 26.2243 28 24.333 28C22.4417 28 20.9476 29.6046 21.0824 31.4911Z" fill="white"/>
<path d="M14.6851 26.2135C14.3321 23.9162 14.1555 22.7676 14.5898 21.7494C15.0241 20.7311 15.9877 20.0344 17.9148 18.6411L19.3547 17.6C21.752 15.8667 22.9506 15 24.3337 15C25.7167 15 26.9154 15.8667 29.3127 17.6L30.7525 18.6411C32.6797 20.0344 33.6432 20.7311 34.0775 21.7494C34.5118 22.7676 34.3353 23.9162 33.9823 26.2135L33.6813 28.1724C33.1808 31.4289 32.9306 33.0572 31.7627 34.0286C30.5948 35 28.8873 35 25.4725 35H23.1949C19.78 35 18.0726 35 16.9047 34.0286C15.7368 33.0572 15.4865 31.4289 14.9861 28.1724L14.6851 26.2135Z" stroke="#141B34" stroke-width="1.5" stroke-linejoin="round"/>
<path d="M21.333 35L21.0824 31.4911C20.9476 29.6046 22.4417 28 24.333 28C26.2243 28 27.7184 29.6046 27.5836 31.4911L27.333 35" stroke="#141B34" stroke-width="1.5"/>
</svg>
