<svg width="45" height="45" viewBox="0 0 45 45" fill="none" xmlns="http://www.w3.org/2000/svg">
<circle cx="22.5" cy="22.5" r="21.75" fill="#FF6D60" stroke="#141B34" stroke-width="1.5"/>
<path d="M13.5 23C13.5 18.5217 13.5 16.2825 14.8912 14.8912C16.2825 13.5 18.5217 13.5 23 13.5C27.4783 13.5 29.7175 13.5 31.1088 14.8912C32.5 16.2825 32.5 18.5217 32.5 23C32.5 27.4783 32.5 29.7175 31.1088 31.1088C29.7175 32.5 27.4783 32.5 23 32.5C18.5217 32.5 16.2825 32.5 14.8912 31.1088C13.5 29.7175 13.5 27.4783 13.5 23Z" stroke="white" stroke-width="1.5" stroke-linejoin="round"/>
<path d="M27.5 23C27.5 25.4853 25.4853 27.5 23 27.5C20.5147 27.5 18.5 25.4853 18.5 23C18.5 20.5147 20.5147 18.5 23 18.5C25.4853 18.5 27.5 20.5147 27.5 23Z" stroke="white" stroke-width="1.5"/>
<path d="M28.5078 17.5H28.4988" stroke="white" stroke-width="2" stroke-linecap="round" stroke-linejoin="round"/>
</svg>
