<svg width="48" height="48" viewBox="0 0 48 48" fill="none" xmlns="http://www.w3.org/2000/svg">
<rect width="48" height="48" rx="24" fill="#34C759"/>
<path d="M13.9977 18L20.9107 21.917C23.4593 23.361 24.5361 23.361 27.0846 21.917L33.9977 18" stroke="white" stroke-width="1.5" stroke-linejoin="round"/>
<path d="M14.0134 25.4756C14.0788 28.5412 14.1115 30.0739 15.2426 31.2094C16.3737 32.3448 17.948 32.3843 21.0965 32.4634C23.037 32.5122 24.9584 32.5122 26.8988 32.4634C30.0473 32.3843 31.6216 32.3448 32.7527 31.2094C33.8838 30.0739 33.9165 28.5412 33.9819 25.4756C34.0029 24.4899 34.0029 23.5101 33.9819 22.5244C33.9165 19.4589 33.8838 17.9261 32.7527 16.7907C31.6216 15.6552 30.0473 15.6157 26.8988 15.5366C24.9584 15.4878 23.037 15.4878 21.0965 15.5366C17.948 15.6157 16.3737 15.6552 15.2426 16.7906C14.1115 17.9261 14.0788 19.4588 14.0134 22.5244C13.9924 23.5101 13.9924 24.4899 14.0134 25.4756Z" stroke="white" stroke-width="1.5" stroke-linejoin="round"/>
</svg>
