<svg width="50" height="50" viewBox="0 0 50 50" fill="none" xmlns="http://www.w3.org/2000/svg">
<rect width="50" height="50" rx="25" fill="#FFF2E5"/>
<path d="M25 32.5C23.6675 33.1224 21.9171 33.5 20 33.5C18.9341 33.5 17.9197 33.3833 17 33.1726C15.4996 32.8289 15 31.9264 15 30.386V19.614C15 18.6291 16.04 17.9527 17 18.1726C17.9197 18.3833 18.9341 18.5 20 18.5C21.9171 18.5 23.6675 18.1224 25 17.5C26.3325 16.8776 28.0829 16.5 30 16.5C31.0659 16.5 32.0803 16.6167 33 16.8274C34.5817 17.1897 35 18.1204 35 19.614V30.386C35 31.3709 33.96 32.0473 33 31.8274C32.0803 31.6167 31.0659 31.5 30 31.5C28.0829 31.5 26.3325 31.8776 25 32.5Z" fill="white"/>
<path d="M24.697 32.524C23.4048 33.1314 21.7075 33.5 19.8485 33.5C18.8149 33.5 17.8312 33.3861 16.9394 33.1805C16.3661 33.0483 16.0795 32.9822 15.736 32.7087C15.5401 32.5527 15.2956 32.2439 15.1882 32.0168C15 31.6188 15 31.2328 15 30.4608V19.9474C15 18.9862 16.0085 18.326 16.9394 18.5406C17.3753 18.6411 17.919 18.8059 18.3939 18.86L31 31.548H29.5455C27.6865 31.548 25.9891 31.9166 24.697 32.524Z" fill="#D4D7E0"/>
<path d="M22.5 25.0021C22.5 26.3829 23.6193 27.5021 25 27.5021C25.6904 27.5021 26.3154 27.2223 26.7678 26.7699L23.2322 23.2344C22.7798 23.6868 22.5 24.3118 22.5 25.0021Z" fill="white"/>
<path d="M18.5 26L18.5 26.009" stroke="#141B34" stroke-width="2" stroke-linecap="round" stroke-linejoin="round"/>
<path d="M31.5 23.9922L31.5 24.0012" stroke="#141B34" stroke-width="2" stroke-linecap="round" stroke-linejoin="round"/>
<path d="M31 31.548C31 31.548 30.0738 31.548 29.5455 31.548C27.6865 31.548 25.9891 31.9166 24.697 32.524C23.4048 33.1314 21.7075 33.5 19.8485 33.5C18.8149 33.5 17.8312 33.3861 16.9394 33.1805C16.3661 33.0483 16.0795 32.9822 15.736 32.7087C15.5401 32.5527 15.2956 32.2439 15.1882 32.0168C15 31.6188 15 31.2328 15 30.4608V19.9474C15 18.9862 16.0085 18.326 16.9394 18.5406C17.3753 18.6411 17.919 18.8059 18.3939 18.86" stroke="#141B34" stroke-width="1.5" stroke-linecap="round" stroke-linejoin="round"/>
<path d="M34.9999 30.5V19.614C34.9999 18.1204 34.5816 17.1897 32.9999 16.8274C32.0802 16.6167 31.0658 16.5 29.9999 16.5C28.0828 16.5 26.3324 16.8776 24.9999 17.5C24.2804 17.836 23.4235 18.3276 22.5 18.5" stroke="#141B34" stroke-width="1.5" stroke-linecap="round" stroke-linejoin="round"/>
<path d="M26.7678 26.7699C26.3154 27.2223 25.6904 27.5021 25 27.5021C23.6193 27.5021 22.5 26.3829 22.5 25.0021C22.5 24.3118 22.7798 23.6868 23.2322 23.2344" stroke="#141B34" stroke-width="1.5" stroke-linecap="round"/>
<path d="M15 15L35 35" stroke="#141B34" stroke-width="1.5" stroke-linecap="round"/>
</svg>
