<svg width="50" height="50" viewBox="0 0 50 50" fill="none" xmlns="http://www.w3.org/2000/svg">
<rect width="50" height="50" rx="25" fill="#FFF2E5"/>
<path d="M24.6647 15C21.6569 15 19.7067 17.019 17.4002 17.7549C16.4624 18.0541 15.9935 18.2037 15.8037 18.4146C15.6139 18.6256 15.5584 18.9337 15.4472 19.5501C14.2579 26.146 16.8574 32.244 23.0568 34.6175C23.7229 34.8725 24.0559 35 24.668 35C25.28 35 25.6131 34.8725 26.2791 34.6175C32.4781 32.2439 35.0751 26.146 33.8855 19.5501C33.7743 18.9336 33.7187 18.6254 33.5289 18.4145C33.3391 18.2036 32.8702 18.054 31.9324 17.755C29.625 17.0191 27.6726 15 24.6647 15Z" fill="#D4D7E0"/>
<path d="M24.6647 15C21.6569 15 19.7067 17.019 17.4002 17.7549C16.4624 18.0541 15.9935 18.2037 15.8037 18.4146C15.6139 18.6256 15.5584 18.9337 15.4472 19.5501C14.2579 26.146 16.8574 32.244 23.0568 34.6175C23.7229 34.8725 24.0559 35 24.668 35C25.28 35 25.6131 34.8725 26.2791 34.6175C32.4781 32.2439 35.0751 26.146 33.8855 19.5501C33.7743 18.9336 33.7187 18.6254 33.5289 18.4145C33.3391 18.2036 32.8702 18.054 31.9324 17.755C29.625 17.0191 27.6726 15 24.6647 15Z" stroke="#141B34" stroke-width="1.5" stroke-linecap="round" stroke-linejoin="round"/>
<path d="M24.6665 20L24.6665 22" stroke="#141B34" stroke-width="1.5" stroke-linecap="round"/>
</svg>
