<svg width="22" height="22" viewBox="0 0 22 22" fill="none" xmlns="http://www.w3.org/2000/svg">
<path d="M16.6114 2.54058C16.6061 2.54012 16.6009 2.53966 16.5956 2.53921C16.24 2.50919 15.833 2.52072 15.5182 2.52964C15.3942 2.53315 15.2845 2.53626 15.1979 2.53626C14.5053 2.53626 14.0567 2.33361 13.5422 1.81904L13.5068 1.78368C13.0039 1.28075 12.5741 0.850889 12.1844 0.553576C11.7684 0.236113 11.3112 0 10.75 0C10.1888 0 9.73164 0.236114 9.31555 0.553576C8.92588 0.850887 8.49606 1.28075 7.99319 1.78367L7.95782 1.81904C7.44316 2.3337 6.99449 2.53626 6.30208 2.53626C6.2153 2.53626 6.10579 2.53318 5.98212 2.5297C5.66509 2.52078 5.25497 2.50924 4.89615 2.54027C4.37128 2.58566 3.71532 2.72929 3.21745 3.23134C2.7234 3.72955 2.58327 4.38282 2.53923 4.90439C2.50922 5.25995 2.52075 5.66701 2.52966 5.98178C2.53317 6.10578 2.53628 6.21549 2.53628 6.30206C2.53628 6.99448 2.33371 7.44315 1.81902 7.95784L1.78367 7.99319C1.28075 8.49606 0.850889 8.92587 0.553579 9.31555C0.236121 9.73162 7.80821e-06 10.1888 0 10.75C1.38879e-05 11.3111 0.236125 11.7683 0.553585 12.1844C0.850952 12.5742 1.28091 13.0041 1.78395 13.5071L1.81906 13.5422C2.15272 13.8758 2.31011 14.0922 2.39932 14.2964C2.48619 14.4953 2.53628 14.7471 2.53628 15.1979C2.53628 15.2847 2.5332 15.3942 2.52972 15.5179C2.5208 15.8349 2.50926 16.245 2.54029 16.6039C2.58569 17.1287 2.72933 17.7847 3.23139 18.2826C3.72961 18.7766 4.38287 18.9167 4.90443 18.9607C5.25997 18.9908 5.66703 18.9792 5.98179 18.9703C6.10581 18.9668 6.2155 18.9637 6.30206 18.9637C6.74328 18.9637 6.99126 19.0081 7.18645 19.0886C7.38147 19.1691 7.59006 19.3132 7.90424 19.6274C7.97129 19.6944 8.05963 19.7891 8.16153 19.8983C8.39149 20.1448 8.69071 20.4655 8.96995 20.7096C9.39374 21.08 10.0016 21.5 10.75 21.5C11.4985 21.5 12.1063 21.08 12.5301 20.7096C12.8093 20.4655 13.1083 20.1451 13.3382 19.8986C13.4402 19.7892 13.5287 19.6945 13.5958 19.6273C13.9099 19.3132 14.1185 19.1691 14.3135 19.0886C14.5087 19.0081 14.7567 18.9637 15.1979 18.9637C15.2845 18.9637 15.3942 18.9668 15.5182 18.9703C15.833 18.9792 16.24 18.9908 16.5956 18.9607C17.1171 18.9167 17.7704 18.7766 18.2686 18.2826C18.7707 17.7847 18.9143 17.1287 18.9597 16.6039C18.9907 16.245 18.9792 15.8349 18.9703 15.5179C18.9668 15.3943 18.9637 15.2846 18.9637 15.1979C18.9637 14.7471 19.0138 14.4953 19.1007 14.2964C19.1899 14.0922 19.3473 13.8758 19.6809 13.5422L19.7161 13.5071C20.2191 13.0041 20.6491 12.5742 20.9464 12.1844C21.2639 11.7683 21.5 11.3111 21.5 10.75C21.5 10.1888 21.2639 9.73162 20.9464 9.31554C20.6491 8.92588 20.2193 8.49607 19.7164 7.99322L19.681 7.95784C19.3473 7.62416 19.1899 7.40779 19.1007 7.20354C19.0138 7.00468 18.9637 6.75288 18.9637 6.30206C18.9637 6.21534 18.9668 6.10593 18.9703 5.98236C18.9792 5.66533 18.9907 5.25496 18.9597 4.89615C18.9223 4.46318 18.818 3.941 18.5008 3.49195C18.276 3.70243 18.0504 3.92598 17.8247 4.16127C16.7068 5.32656 15.6458 6.71605 14.7223 8.06511C13.8009 9.41123 13.0288 10.699 12.4868 11.6512C12.1966 12.161 11.9135 12.6751 11.645 13.1966L11.6428 13.2009C11.468 13.5463 11.1091 13.7607 10.7221 13.7499C10.3351 13.739 9.98911 13.5058 9.83393 13.1511C9.02727 11.3073 8.1616 10.578 7.61764 10.2835C7.1994 10.057 6.91584 10.052 6.85943 10.0525L6.85346 10.0526C6.31878 10.1085 5.83267 9.72992 5.7593 9.19345C5.68447 8.64626 6.06925 8.14176 6.61645 8.06693C7.28628 7.98653 7.98862 8.20992 8.57003 8.52477C9.27705 8.90765 10.0399 9.56293 10.7559 10.6492C11.3164 9.6651 12.1151 8.3333 13.0719 6.93542C14.0309 5.53448 15.161 4.04897 16.3814 2.77675C16.4575 2.69743 16.5342 2.61867 16.6114 2.54058Z" fill="#34C759"/>
</svg>
