<svg width="45" height="45" viewBox="0 0 45 45" fill="none" xmlns="http://www.w3.org/2000/svg">
<circle cx="22.5" cy="22.5" r="21.75" fill="#FFFEF8" stroke="#141B34" stroke-width="1.5"/>
<path d="M32.3229 19.1459L29.9318 29.1138C29.5008 30.9108 29.2852 31.8092 28.6567 31.9754C28.0282 32.1416 27.4277 31.4589 26.2268 30.0936L22.9854 26.4083L21.0614 29.0819C20.4822 29.8867 20.1927 30.2891 19.8601 30.223C19.5275 30.1568 19.4005 29.6715 19.1465 28.701L18.6581 26.8344C18.3971 25.8371 18.2666 25.3384 17.9608 24.9584C17.9264 24.9157 17.8905 24.8743 17.8532 24.8344C17.5213 24.479 17.0584 24.2934 16.1325 23.9223C14.0892 23.1033 13.0675 22.6937 13.0047 21.9955C12.9983 21.9241 12.9984 21.8522 13.0051 21.7808C13.07 21.0829 14.0929 20.6767 16.1388 19.8645L28.0061 15.1528C30.564 14.1372 31.843 13.6295 32.5808 14.312C33.3187 14.9945 32.9868 16.3783 32.3229 19.1459Z" fill="#D4D7E0"/>
<path d="M22.9854 26.4083L26.2268 30.0936C27.4277 31.4589 28.0282 32.1416 28.6567 31.9754C29.2852 31.8092 29.5008 30.9108 29.9318 29.1138L32.3229 19.1459C32.9868 16.3783 33.3187 14.9945 32.5808 14.312C31.843 13.6295 30.564 14.1372 28.0061 15.1528L16.1388 19.8645C14.0929 20.6767 13.07 21.0829 13.0051 21.7808C12.9984 21.8522 12.9983 21.9241 13.0047 21.9955C13.0675 22.6937 14.0892 23.1033 16.1325 23.9223C17.0584 24.2934 17.5213 24.479 17.8532 24.8344C17.8905 24.8743 17.9264 24.9157 17.9608 24.9584C18.2666 25.3384 18.3971 25.8371 18.6581 26.8344L19.1465 28.701C19.4005 29.6715 19.5275 30.1568 19.8601 30.223C20.1927 30.2891 20.4822 29.8867 21.0614 29.0819L22.9854 26.4083ZM22.9854 26.4083L22.6676 26.0771C22.3059 25.7001 22.1251 25.5117 22.1251 25.2775C22.1251 25.0433 22.3059 24.8548 22.6676 24.4778L26.2406 20.7541" stroke="#141B34" stroke-width="1.5" stroke-linecap="round" stroke-linejoin="round"/>
</svg>
